<svg xmlns="http://www.w3.org/2000/svg" viewBox="0 0 104.34 104.7"><defs><style>.cls-1{fill:#fff;}</style></defs><g id="Layer_2" data-name="Layer 2"><g id="Layer_1-2" data-name="Layer 1"><circle class="cls-1" cx="40.93" cy="84.84" r="6.09"/><path class="cls-1" d="M40.93,14a7.43,7.43,0,0,0-7.43,7.43C33.5,21.58,36,70,36,70.07v.06a5,5,0,0,0,9.94,0v-.06c0-.07,2.46-48.57,2.46-48.65A7.43,7.43,0,0,0,40.93,14Z" transform="translate(0 0)"/><path class="cls-1" d="M63.22,14a7.43,7.43,0,0,0-7.43,7.43c0,.16,2.46,48.58,2.46,48.65v.06a5,5,0,0,0,9.94,0v-.06c0-.07,2.46-48.57,2.46-48.65A7.43,7.43,0,0,0,63.22,14Z" transform="translate(0 0)"/><circle class="cls-1" cx="63.22" cy="84.84" r="6.09"/><path class="cls-1" d="M72,104.51a23.58,23.58,0,0,0,8.48-2.69,11.41,11.41,0,0,0,5.14-6.21,13.18,13.18,0,0,0,.7-3.93l-.13-4.48c-.07-3.06-.1-6.12-.11-9.18s0-6.12.11-9.17c0-1.54,0-3,.2-4.72a16.16,16.16,0,0,1,1.25-4.9,11.71,11.71,0,0,1,3-4.2A12.22,12.22,0,0,1,95,52.56a16.94,16.94,0,0,1,9.39,0,19.67,19.67,0,0,0-8.65,1.86,9.83,9.83,0,0,0-5.17,6,15.43,15.43,0,0,0-.64,4c0,1.35,0,2.93.07,4.45q.1,4.57.1,9.15c0,3.05,0,6.11-.1,9.16l-.06,2.29,0,1.14,0,.58v.33l0,.35a14.37,14.37,0,0,1-1.34,5,13.05,13.05,0,0,1-7.15,6.79A19.35,19.35,0,0,1,72,104.51Z" transform="translate(0 0)"/><path class="cls-1" d="M72,.19a19.35,19.35,0,0,1,9.34.93,13,13,0,0,1,7.15,6.79,14.37,14.37,0,0,1,1.34,4.95l0,.34v.34l0,.57,0,1.15L90,17.55q.1,4.57.1,9.15T90,35.86c0,1.52-.1,3.09-.07,4.44a15.51,15.51,0,0,0,.64,4.05,9.86,9.86,0,0,0,5.17,6,19.66,19.66,0,0,0,8.65,1.85,16.85,16.85,0,0,1-9.39,0,11.92,11.92,0,0,1-4.37-2.47,11.71,11.71,0,0,1-3-4.2,16,16,0,0,1-1.25-4.89c-.16-1.7-.15-3.18-.2-4.72-.07-3.06-.1-6.12-.11-9.18s0-6.11.11-9.17L86.29,13a13.07,13.07,0,0,0-.7-3.93,11.38,11.38,0,0,0-5.14-6.21A23.38,23.38,0,0,0,72,.19Z" transform="translate(0 0)"/><path class="cls-1" d="M32.37.19a23.38,23.38,0,0,0-8.48,2.69,11.38,11.38,0,0,0-5.14,6.21,13.07,13.07,0,0,0-.7,3.93l.13,4.48q.11,4.59.1,9.17t-.1,9.18c-.05,1.54,0,3-.2,4.72a16,16,0,0,1-1.25,4.89,11.83,11.83,0,0,1-3,4.2,12,12,0,0,1-4.38,2.47,16.81,16.81,0,0,1-9.38,0,19.69,19.69,0,0,0,8.65-1.85,9.86,9.86,0,0,0,5.17-6,15.94,15.94,0,0,0,.64-4.05c0-1.35,0-2.92-.07-4.44q-.11-4.57-.1-9.16t.1-9.15l.06-2.29,0-1.15,0-.57V13.2l0-.34a14.59,14.59,0,0,1,1.33-4.95A13,13,0,0,1,23,1.12,19.35,19.35,0,0,1,32.37.19Z" transform="translate(0 0)"/><path class="cls-1" d="M32.37,104.51a19.35,19.35,0,0,1-9.34-.93,13.1,13.1,0,0,1-7.16-6.79,14.59,14.59,0,0,1-1.33-5l0-.35v-.33l0-.58,0-1.14-.06-2.29c-.07-3.05-.1-6.11-.1-9.16s0-6.1.1-9.15c0-1.52.09-3.1.07-4.45a15.86,15.86,0,0,0-.64-4,9.83,9.83,0,0,0-5.17-6A19.7,19.7,0,0,0,0,52.53a16.9,16.9,0,0,1,9.38,0A12.26,12.26,0,0,1,13.76,55a11.83,11.83,0,0,1,3,4.2A16.16,16.16,0,0,1,18,64.13c.16,1.7.15,3.18.2,4.72q.11,4.58.1,9.17t-.1,9.18l-.13,4.48a13.18,13.18,0,0,0,.7,3.93,11.41,11.41,0,0,0,5.14,6.21A23.58,23.58,0,0,0,32.37,104.51Z" transform="translate(0 0)"/></g></g></svg>